<?xml version="1.0" encoding="utf-8"?>
<!-- Generator: Adobe Illustrator 24.0.1, SVG Export Plug-In . SVG Version: 6.00 Build 0)  -->
<svg version="1.1" id="Layer_1" xmlns="http://www.w3.org/2000/svg" xmlns:xlink="http://www.w3.org/1999/xlink" x="0px" y="0px"
	 viewBox="0 0 364.99 432.41" style="enable-background:new 0 0 364.99 432.41;" xml:space="preserve">
<style type="text/css">
	.st0{fill:#248CBD;}
	.st1{fill-rule:evenodd;clip-rule:evenodd;fill:#248CBD;}
	.st2{fill-rule:evenodd;clip-rule:evenodd;fill:#03031A;}
	.st3{fill-rule:evenodd;clip-rule:evenodd;fill:#707F9E;}
	.st4{fill-rule:evenodd;clip-rule:evenodd;fill:#63667A;}
	.st5{fill-rule:evenodd;clip-rule:evenodd;fill:#FFDCD0;}
	.st6{fill-rule:evenodd;clip-rule:evenodd;fill:#33333F;}
	.st7{fill-rule:evenodd;clip-rule:evenodd;fill:#584445;}
	.st8{fill-rule:evenodd;clip-rule:evenodd;fill:#B4B5C7;}
	.st9{fill-rule:evenodd;clip-rule:evenodd;fill:#656774;}
	.st10{fill-rule:evenodd;clip-rule:evenodd;fill:#B08880;}
	.st11{fill-rule:evenodd;clip-rule:evenodd;fill:#FFFFFF;}
	.st12{fill-rule:evenodd;clip-rule:evenodd;fill:#262940;}
	.st13{fill-rule:evenodd;clip-rule:evenodd;fill:#37435C;}
	.st14{fill-rule:evenodd;clip-rule:evenodd;fill:#BCCCEB;}
	.st15{fill-rule:evenodd;clip-rule:evenodd;fill:#9FA0B5;}
	.st16{fill-rule:evenodd;clip-rule:evenodd;fill:#A17970;}
	.st17{fill-rule:evenodd;clip-rule:evenodd;fill:#5C5C68;}
	.st18{fill:#FFFFFF;}
	.st19{fill-rule:evenodd;clip-rule:evenodd;fill:#CACBDE;}
</style>
<path class="st0" d="M277.19,197.09c-24.49-24.49-58.32-39.64-95.7-39.64c-37.37,0-71.21,15.15-95.7,39.64
	c-24.49,24.49-39.64,58.32-39.64,95.7c0,37.37,15.15,71.21,39.64,95.7c24.49,24.49,58.32,39.64,95.7,39.64
	c37.37,0,71.21-15.15,95.7-39.64c24.49-24.49,39.64-58.32,39.64-95.7C316.83,255.42,301.68,221.58,277.19,197.09 M181.49,153.16
	c38.56,0,73.46,15.63,98.73,40.9c25.27,25.27,40.9,60.17,40.9,98.73c0,38.56-15.63,73.46-40.9,98.73
	c-25.27,25.27-60.17,40.9-98.73,40.9c-38.56,0-73.46-15.63-98.73-40.9c-25.27-25.27-40.9-60.17-40.9-98.73
	c0-38.56,15.63-73.46,40.9-98.73C108.03,168.79,142.94,153.16,181.49,153.16z"/>
<path class="st1" d="M144.58,140.4c-0.09-0.36-0.19-0.7-0.3-1.01c-0.49-0.78-0.89-1.63-1.21-2.5c-0.34-0.3-0.67-0.62-0.97-0.97
	c-0.52-0.6-0.97-1.26-1.35-1.96c-0.29-0.23-0.57-0.47-0.84-0.74c-1.47-1.47-2.61-4.27-3.27-6.84c-0.66,0.01-1.31,0.11-1.77,0.26
	l-9.83,3.12l-0.07-10.32c-0.04-5.87,0.12-11.74,0.33-17.61c0.24-6.97,0.57-13.94,0.93-20.91c0.87-16.61,1.93-33.22,3.16-49.8
	L131.57,2l12.31,26.49c9.1,19.59,17.87,39.34,26.09,59.32c2.44,5.92,4.86,11.84,7.14,17.82c2.41-2.09,5.22-3.9,8.5-5.42
	c11.24-5.2,20.7-1.5,29.74,5.84c1.53,1.24,2.9,2.66,4.12,4.2c1.95-5.47,5.12-7.97,11.08-9.13c3.98-3.5,9.42-4.99,14.63-3.21
	c4.89,1.68,8.24,5.82,9.34,10.81c0.23,1.04,0.39,2.1,0.48,3.16l0.71,1.87c1,2.63,1.65,5.63,2.01,8.42
	c0.75,5.92,0.12,12.15-3.14,17.28c-0.18,0.28-0.36,0.56-0.54,0.84c7.75,1.56,14.54,5.71,20.06,11.31
	c6.14,6.23,10.78,14.01,14.17,22.03c1.61,3.81,3.08,7.84,4.02,11.87l2.9,12.43l-8.52-2.32c-0.51,5.2-1.8,10.32-3.95,15.12
	c-0.1,0.22-0.2,0.44-0.3,0.67c15.93,19.73,25.64,43.5,28.1,68.62c2.99-1.7,6.47-2.54,9.95-2.54c8.12,0.01,16.25,0.02,24.37,0.02
	c5.55,0.01,10.7,2.15,14.31,6.41c3.69,4.36,4.85,9.9,2.96,15.32c-4.21,12.07-8.44,24.15-12.75,36.19
	c-4.16,11.61-8.41,23.18-12.68,34.74c-1.48,4-4.59,6.99-8.53,8.54l-29.48,12.14l-0.55,0.2l-0.56,0.18l-0.57,0.16l-0.58,0.14
	l-0.58,0.12l-0.58,0.09l-0.59,0.07l-0.59,0.05l-0.59,0.03l-0.6,0.01l-0.6-0.01l-0.6-0.03l-0.6-0.05l-0.57-0.07l-2.26-0.29
	l-2.26-0.28l-1.51-0.19l-1.29-0.16c-0.83,1.3-1.9,2.48-3.17,3.49c-1.07,0.85-2.24,1.55-3.49,2.11L257.44,405l-0.34,0.14l-0.37,0.15
	l-0.37,0.13l-0.37,0.12l-0.37,0.11l-0.38,0.11l-0.38,0.09l-0.38,0.09l-0.38,0.08l-0.38,0.07l-0.39,0.06l-0.38,0.05l-0.38,0.04
	l-0.39,0.03l-0.38,0.02l-0.39,0.01l-0.38,0.01l-0.38,0l-0.39-0.01l-0.38-0.02l-0.38-0.02l-0.39-0.03l-0.28-0.03l-2.15-0.19
	c-0.59-0.05-1.17-0.1-1.76-0.15c-19.39,10.9-41.14,16.55-63.42,16.55c-22.34,0-44.15-5.69-63.58-16.65
	c-2.75,0.22-5.5,0.46-8.26,0.71l-0.27,0.03l-0.4,0.04l-0.4,0.03l-0.4,0.02l-0.41,0.01l-0.4,0l-0.4-0.01l-0.4-0.01l-0.4-0.02
	l-0.41-0.03l-0.4-0.04l-0.4-0.05l-0.4-0.06l-0.39-0.07l-0.39-0.08l-0.4-0.09l-0.39-0.1l-0.38-0.11l-0.39-0.12l-0.39-0.14l-0.38-0.14
	l-0.38-0.16l-18.84-8.48c-0.13-0.06-0.27-0.12-0.4-0.18c-1.29-0.6-2.49-1.36-3.58-2.29c-0.9-0.76-1.69-1.61-2.36-2.54l-0.68,0.08
	l-1.3,0.14l-1.3,0.14l-0.96,0.1l-0.28,0.03l-0.54,0.05l-0.54,0.05l-0.55,0.04l-0.55,0.04l-0.54,0.03l-0.29,0.02l-0.54,0.03
	l-0.28,0.01l-0.54,0.02l-0.54,0.02l-0.55,0.01l-0.54,0.01l-0.28,0l-0.53,0l-0.28,0l-0.53,0l-0.28,0l-0.57-0.01l-0.29-0.01
	l-0.28-0.01l-0.57-0.02l-0.57-0.03l-0.56-0.03l-0.28-0.02l-0.28-0.02l-0.29-0.02l-0.57-0.05l-0.29-0.03l-0.55-0.06l-0.28-0.03
	l-0.29-0.03l-0.29-0.03l-0.55-0.07l-0.29-0.04l-0.28-0.04l-0.28-0.04l-0.28-0.04l-0.28-0.05l-0.56-0.09l-0.56-0.1l-0.34-0.06
	l-0.34-0.07l-0.34-0.07l-0.33-0.07l-0.33-0.08l-0.34-0.08l-0.33-0.09l-0.33-0.09l-0.33-0.09l-0.33-0.1l-0.33-0.1l-0.34-0.11
	l-0.32-0.11l-0.32-0.11l-0.34-0.12l-0.29-0.11l-31.85-12.24c-2.06-0.79-4.05-1.78-5.89-3c-4.09-2.72-7.21-6.48-9.19-10.96
	c-2.1-4.75-2.56-10.01-2.03-15.13c0.45-4.44,1.28-8.84,2.37-13.17c1.05-4.18,2.28-8.32,3.64-12.41c1.33-3.99,2.8-7.93,4.4-11.82
	c1.44-3.53,3.01-7.01,4.6-10.47l0.05-0.1c1.79-3.72,4.34-7.03,7.32-9.88c3.61-3.47,7.99-6.06,12.55-8.08
	c5.17-2.29,10.75-3.71,16.31-4.7c0.42-0.07,0.83-0.14,1.25-0.21c4.52-40.17,27.62-75.93,62.35-96.7c0.23-0.28,0.46-0.56,0.7-0.83
	c-1.26-3.95-1.82-8.12-1.7-12.28c0.08-2.7,0.41-5.66,1.19-8.24l2.12-7l0-2.4l4.3-2.08C128.3,145.4,136.79,141.82,144.58,140.4"/>
<path class="st2" d="M181.49,169.24c68.23,0,123.55,55.31,123.55,123.55c0,68.23-55.31,123.55-123.55,123.55
	S57.95,361.02,57.95,292.79C57.95,224.55,113.26,169.24,181.49,169.24"/>
<path class="st3" d="M181.49,183.65c60.28,0,109.14,48.86,109.14,109.14c0,60.28-48.86,109.14-109.14,109.14
	S72.36,353.06,72.36,292.79C72.36,232.51,121.22,183.65,181.49,183.65"/>
<path class="st2" d="M236.43,109.43l4.67-1.45C241.1,107.98,240.3,111.44,236.43,109.43 M148.33,133.05
	c-0.62-0.22-1.19-0.63-1.62-1.12c-0.51-0.59-0.92-1.4-1.16-2.22c-0.5-0.17-0.97-0.43-1.32-0.78c-0.94-0.94-1.96-4.9-2.11-6.29
	c-0.04-0.35-0.08-0.71-0.1-1.08c-2.55-1.49-6.25-1.58-8.97-0.71l-1.97,0.62l-0.01-2.06c-0.04-5.78,0.12-11.58,0.32-17.35
	c0.24-6.94,0.57-13.87,0.93-20.8c0.87-16.55,1.92-33.14,3.16-49.67l0.43-5.83l2.46,5.3c9.06,19.5,17.8,39.19,25.99,59.07
	c2.93,7.12,5.88,14.34,8.54,21.57l1.52,4.13l-3.72-2.3c-0.75-0.4-2.22-0.21-2.98-0.01c-1.22,0.31-2.73,1.75-3.79,3.01
	c1.21,1.46,1.39,4.93,1.32,6.67c-0.04,1.17-0.39,2.42-1.43,3.06c-0.04,0.79-0.19,1.59-0.39,2.25c-0.2,0.66-0.49,1.34-1,1.81
	c0.06,0.96,0.1,1.93,0.1,2.86c0,0.58-0.05,1.29-0.27,1.88l1.75,9.54c1.37-0.23,2.92-0.65,3.72-1.56c0.93-1.05,1.28-3.18,1.52-4.52
	c0.6-3.38,1.1-6.65,1.91-10.01c2.53-10.46,7.07-18.16,17.04-22.77c8.95-4.14,16.1-0.84,23.35,5.04c1.84,1.5,3.38,3.34,4.67,5.33
	c2.05,3.16,3.79,7.36,4.96,11.51c0.56-1.14,1.18-2.06,1.85-2.94c0.53,4.04,3.31,6.49,3.31,6.49s-1.85-4.27-1.17-9.04
	c0.61-1.64,1.69-3.1,3.13-4.33c0.94-0.81,2.2-1.64,3.41-2.21c0.11-0.59,0.08-1.29-0.36-1.63c-1.23-0.92-5.5-0.16-6.76,0.52
	c1.3-5.21,2.56-6.82,8.91-7.67c2.4-2.79,6.1-4.39,9.75-3.14c2.88,0.99,4.73,3.46,5.38,6.37c0.23,1.03,0.36,2.07,0.39,3.12l1.04,2.75
	c0.81,2.13,1.38,4.79,1.66,7.03c0.57,4.47,0.24,9.35-2.24,13.25c-1.35,2.13-3.12,4.66-5.11,6.25c-0.52,0.42-1.07,0.77-1.68,1.06
	c-0.12,0.06-0.27,0.12-0.42,0.18c0.09,0.52,0.41,1.33,0.7,1.99c0.6,0,1.23,0.06,1.76,0.26c2.38-0.4,5.46-0.17,7.7,0.24
	c6.73,1.24,12.6,4.87,17.37,9.7c5.58,5.66,9.82,12.83,12.9,20.13c1.43,3.38,2.86,7.29,3.7,10.88l0.58,2.49l-6.19-1.69
	c0.41,7.04-0.7,14.08-3.59,20.56c-1.09,2.44-2.8,5.55-4.64,7.7c0.7,10.65-0.74,21.78-3.48,32.06c-0.95,3.57-2.09,7.19-3.48,10.62
	c-0.42,1.03-0.87,2.08-1.39,3.06c-0.44,0.82-1.02,1.83-2.1,1.83c-0.35,0-0.73-0.06-1.12-0.17c-0.13,6.61,0.64,13.33,1.99,19.77
	c0.66,3.15,1.5,6.58,2.58,9.62l0.19,0.54l-0.21,0.53c-0.54,1.34-2.56,3.46-3.53,4.46c-1.95,1.99-4.06,3.87-6.19,5.66
	c-3.57,3.02-7.28,5.89-11.03,8.67c-3.13,2.32-6.41,4.45-9.77,6.43c-7.92,4.68-16.4,8.67-24.91,12.15
	c-3.53,1.44-7.17,2.87-10.81,4.11c0.88,4.66,1.71,9.34,2.52,14.02c0.5,2.93,1,5.87,1.44,8.81c0.28,1.91,0.64,4.05,0.71,5.97
	c0.23,6.56-8.6,7.02-11.9,2.54c-1.2-1.63-2.84-10.78-3.26-12.96c-1.55-8.06-2.93-16.18-4.28-24.28
	c-1.98-11.91-3.89-23.84-5.71-35.78c-6.21-0.29-12.51,1.05-18.28,3.28c-2.52,0.97-5.45,2.28-7.84,3.74
	c-0.62,4.88-4.16,12.21-6.46,16.24l-0.38,0.67l-0.77,0.09c-4.35,0.5-9.86,0.08-14.13-0.62c-10.05-1.64-19.49-5.7-27.05-12.63
	c-7.01-6.43-12.14-14.46-14.71-23.64c-0.97-3.47-1.84-8.26-1.64-11.91l0.15-2.63l2.2,1.45c1.01,0.66,2.8,1.25,4.66,1.72
	c-1.74-2.16-3-4.67-3.77-7.44c-0.52-1.87-0.91-4.36-0.78-6.33l0.14-2.09l1.94,0.79c4.36,1.77,9.25,1.43,13.68,0.15
	c1.23-0.35,2.61-0.83,3.92-1.39c-1.33-0.81-2.55-1.84-3.42-2.9c-0.34-0.41-0.65-0.84-0.93-1.29c-1.12-1.8-1.6-3.73-1.83-5.81
	c-0.36-3.18-0.25-6.65-0.13-9.85c0.15-4.18,1.05-8.35,2.71-12.19c0.43-1,0.99-2.16,1.61-3.21c-0.73-0.63-1.3-1.47-1.54-2.38
	l-0.1-0.37l0.09-0.37c0.43-1.79,0.98-3.6,1.53-5.36c1.33-4.19,2.91-8.34,4.72-12.35c1.86-4.11,4.34-7.99,7.19-11.48
	c0.97-1.18,2.05-2.44,3.18-3.55c-1.93-4.21-2.78-8.81-2.65-13.44c0.06-2.06,0.33-4.66,0.93-6.66l0.58-1.92l2.24,1.43
	c-0.34-1.98-0.44-4.04-0.44-5.9l0-0.95l0.86-0.42c7.06-3.42,17.28-7.7,25.13-8.2c0.78-0.05,1.58-0.09,2.38-0.1
	c-0.51-3.04-1.48-8.32-2.13-9.33C148.99,135.56,148.54,134.28,148.33,133.05z"/>
<path class="st4" d="M247.53,250.51c0,0-0.12-0.05-0.35-0.13c-2.09-0.77-13.08-4.72-21.18-5.95c-8.98-1.36-19.11,0.44-21.97,0
	c-2.86-0.44-6.03-1.01-6.03-1.01s-1.41,2.16-2.73,6.87c-1.32,4.71-0.75,9.16-0.75,9.16s6.47,0.97,10.79,2.99
	c4.31,2.03,17.96,5.68,26.02,3.57c0,0-5.99-0.35-14.22-2.24c-8.23-1.89-14.84-5.68-14.84-5.68s14.22,5.06,23.47,4.36
	c9.25-0.7,2.29-5.86,2.29-5.86s7.57-0.09,10.35-1.72C241.14,253.24,244.18,250.73,247.53,250.51 M232.16,233.51
	c0,0,6.87,0.79,15.59,6.34c8.72,5.55,12.06,13.82,12.06,13.82s4.67-7.13,4.58-14.53c-0.09-7.4,0.88-21.31,0.88-21.31
	s-9.41,8.63-14.79,14.53c0,0,7.12,4.85,9.86,9.6C260.34,241.97,248.01,230.7,232.16,233.51z M133.24,189.44l-5.37-5.55
	c0,0-1.32,3.96-4.75,8.37c-3.43,4.4-8.45,15.5-8.89,19.9c0,0,3.7,5.9,11.62,3.43c0,0-3.7-1.67-5.64-5.9c0,0,8.72,3.87,15.85,4.23
	c7.13,0.35,6.43-5.37,4.75-7.4c-1.67-2.03-5.9-7.13-5.9-7.13l4.23,0.26c0,0-5.46-3.26-6.78-5.28c-1.32-2.03-2.2-5.81-2.2-5.81
	L133.24,189.44z M159.03,219.73c0,0-5.46,2.02-15.06,1.76c-9.6-0.26-20.96-0.62-21.75,0.26c-0.79,0.88-1.32,1.58,0,11.62
	c1.32,10.04,3.87,12.86,7.75,13.03c3.87,0.18,27.56-10.04,27.56-10.04s-5.37,1.76-15.06,3.52c-9.69,1.76-12.15,0.79-12.15,0.79
	s22.37-6.34,22.98-8.89c0.62-2.55-6.52-3.17-8.1-2.91l15.41-5.99C160.62,222.9,159.47,221.76,159.03,219.73z M136.41,247.91
	c0,0-6.16,11.71-18.93,20.87c-12.77,9.16-21.13,10.39-21.13,10.39s7.75,16.47,17.52,23.69c9.77,7.22,24.57,8.54,25.54,7.92
	c0.97-0.62,11.01-30.55,10.74-32.58c0,0-9.65,20.16-19.46,24.39c0,0,7.13-8.81,13.3-23.95c6.16-15.15,3.17-27.03,1.59-27.47
	c-1.59-0.44-17.96,16.64-17.96,16.64l11.71-21.22L136.41,247.91z M221.6,269.13c0,0-9.69,45.61-18.67,57.76
	c0,0,14.62-6.78,33.9-18.23c19.28-11.45,19.2-16.11,19.11-17.96l-25.98,15.67c0,0,13.47-12.59,13.12-22.37
	c-0.35-9.77-8.72-8.19-12.86-6.08c-4.14,2.11-7.13,6.34-7.13,6.34s2.29-10.13,1.59-11.98C223.97,270.45,221.6,269.13,221.6,269.13z
	 M172.24,159.86c0,0-5.72,9.86-3.96,14.53c1.76,4.67,7.57,6.69,10.92,9.07c3.35,2.38,4.75,3.52,4.75,3.52s-9.51-9.95-11.36-15.32
	C170.75,166.29,172.24,159.86,172.24,159.86z M227.1,162.32c0,0-1.14-5.55-4.67-11.98c-3.52-6.43-5.99-22.63-10.39-29.76
	c-4.4-7.13-11.1-10.21-16.64-10.13c-5.55,0.09-12.59,4.23-16.55,12.5c-3.96,8.28-4.67,17.96-7.84,24.65
	c-3.17,6.69-6.6,11.36-4.93,16.03c0,0,2.03-3.52,5.11-6.52c3.08-2.99,8.45-21.84,16.38-27.38c7.92-5.55,8.89-4.67,8.89-4.67
	s4.14,0.88,5.99,3.08c0,0-1.76-4.23-8.37-5.81c0,0-6.6,1.41-10.65,6.6c0,0,5.72-11.62,13.03-13.47c0,0,5.99,0.53,10.13,5.72
	c4.14,5.2,8.01,14.53,11.8,26.24C222.17,159.15,227.1,162.32,227.1,162.32z"/>
<path class="st3" d="M153.93,151.32c0,0-3.43-0.53-10.92,2.11c-7.48,2.64-11.36,4.23-11.36,4.23s0.26,12.33,8.98,21.13
	c0,0-8.98-1.32-12.86-6.87c0,0,4.84,19.11,25.54,20.43c0,0-7.66,2.82-14.79,0.18c0,0,1.58,11.27,16.55,12.24c0,0-1.94,3.35-4.23,4.4
	c0,0,3.26,3.52,5.72,3.61c0,0,1.23-5.81,2.47-6.87c1.23-1.06,4.93-1.76,4.93-1.76l-3.87-18.84c0,0-9.16-6.87-11.09-16.91
	c0,0,6.52,6.69,10.04,8.37L153.93,151.32z M171.49,193.41l1.85,9.6c0,0,4.93-2.2,7.48-0.62c2.55,1.58,1.58,5.02,1.58,5.02
	s3.08-1.06,5.02,3.17c1.94,4.23-1.67,13.65-1.67,13.65s9.51-1.5,13.91-10.21c0,0,2.38,9.77-3.96,16.99c0,0,9.25,4.14,17.87-5.72
	c0,0,0.44,8.01-3.26,12.42c0,0,11.27-7.31,14.79-18.93c0,0-9.86,3.26-15.59,1.58c0,0,7.04-6.6,9.42-15.5c0,0-3.96,2.29-7.04,2.2
	c0,0,9.69-6.08,11.62-9.6c0,0,0.7,12.15-5.02,18.4c0,0,17.79-2.47,26.94-18.58c0,0-1.67,18.58-8.01,24.48c0,0,12.15-4.05,15.67-8.37
	c0,0-0.18,5.99-2.2,9.69c0,0,4.4-0.62,11.09-16.11c6.69-15.5,4.14-27.03,4.14-27.03s9.16,14.44,6.43,27.3c0,0,5.02-16.99-0.18-27.65
	l4.14,0.79c0,0-4.14-19.64-20.34-24.92s-23.69-3.26-29.15-5.72c0,0,1.32,5.02,9.86,9.25c8.54,4.23,13.12,5.99,13.12,5.99
	s-11.05,0.68-18.93-3.17c0,0,3.08,8.63,1.14,16.82c-1.94,8.19-5.46,12.59-5.46,12.59s1.27-7.04-0.62-12.94
	c0,0-5.99,14.88-18.14,21.13c-12.15,6.25-18.31,5.19-18.31,5.19s5.02-2.82,7.22-5.81C196.94,198.78,182.94,202.65,171.49,193.41z
	 M256.51,260.72c0,0-2.38,6.3-10.79,8.45c-8.41,2.16-11.31-0.75-11.31-0.75s2.99-7.26,7.66-10.96c4.67-3.7,12.59-2.51,12.59-2.51
	s-0.66,3.35-3.87,7.04c-3.21,3.7-4.98,4.45-4.98,4.45S251.31,266.27,256.51,260.72z M123.02,247.38c0,0-4.05-5.19-4.75-12.15
	c-0.7-6.96,0.35-12.86-0.7-13.74c-1.06-0.88-5.55-0.18-7.48,5.2c-1.94,5.37-1.5,9.51,0,14.44c1.5,4.93,4.67,7.22,4.67,7.22
	s-3.52-6.43-1.58-12.24C113.16,236.11,113.86,245.01,123.02,247.38z M129.01,249.85c0,0-19.02,13.74-29.59,13.82
	c0,0,3.35,5.11,8.45,5.11C112.98,268.78,124.87,258.74,129.01,249.85z"/>
<path class="st5" d="M181.16,260.31c0,0,7.44-2.33,7.57-3.17c0.13-0.84,0.4-14.26,0.4-14.26s-2.03,1.98-3.57,5.37
	c-1.54,3.39-1.94,7.84-1.94,7.84l-2.6,0.84c0,0-2.77-1.41-2.69-3.52C178.34,253.39,177.37,257.09,181.16,260.31 M180.21,212.34
	c0,0,1.28,0.75,1.5,2.95c0.22,2.2-1.58,3.7-1.58,3.7s0.66,0.26,1.23,1.59c0.57,1.32,0.44,2.24,0.44,2.24s1.63-0.44,1.85-1.14
	c0.22-0.7,0.18-4.31,0.92-5.24c0.75-0.92,1.36-4.14,0.22-5.5C183.65,209.56,181.49,209.12,180.21,212.34z M162.29,213.97
	c0.26-0.09,5.02-2.29,9.47-2.77c4.45-0.48,6.87-0.09,7.57-1.5c0.7-1.41,0.75-3.04-0.26-4.01c-1.01-0.97-5.02,0.04-8.14,0.92
	c-3.13,0.88-7.92,0.18-8.81,1.01c-0.88,0.84-1.67,1.28-1.45,2.91C160.88,212.16,160.05,214.5,162.29,213.97z M174.4,218.72
	c0,0-8.1,2.2-9.51,2.11c-1.41-0.09-2.47-0.44-2.25-1.5c0.22-1.06,0.62-3.48,1.63-3.96c1.01-0.48,7.53-1.94,10.57-2.03
	c3.04-0.09,3.83-0.09,3.83-0.09s0.88,2.03,0.48,3.17C178.76,217.58,177.92,217.62,174.4,218.72z M178.8,220.18
	c-0.31,0-4.75,1.41-8.41,2.07c-3.65,0.66-3.65,0.79-5.06,1.76c-1.41,0.97-1.81,2.69-1.32,3.74c0.48,1.06,4.05-0.26,9.69-1.5
	C179.33,225.02,181.09,225.06,178.8,220.18z M179.15,227c0,0-9.42,3.08-11.62,3.52c-2.2,0.44-2.16,2.42-2.11,2.99
	c0.04,0.57,0.84,0.97,2.99,0.84c2.16-0.13,8.85-1.58,10.13-2.99C179.82,229.95,180.04,229.11,179.15,227z M193.55,241.48
	c0,0-2.82,9.69-2.82,15.06c0,0,0.7,2.11-4.14,4.75c-4.84,2.64-11.8,4.58-12.5,4.14c-0.7-0.44-0.53-2.29-0.53-2.29
	s3.35-1.59,3.35-1.85c0-0.26-4.14,0.44-4.45,0c-0.31-0.44-1.76-3.52-1.14-4.09c0.62-0.57,4.09-2.77,3.61-2.95
	c-0.48-0.18-5.72,0.53-6.08,0.13c-0.35-0.4-2.16-5.5-0.92-5.86c1.23-0.35,6.65-2.07,6.65-2.07s-6.38,0.13-7.88-0.66
	c-1.5-0.79-1.81-1.14-1.5-2.38c0.31-1.23,0.88-3.13,1.23-3.17c0.35-0.04,9.64-2.16,10.96-2.03c1.32,0.13,8.98,1.19,8.98,1.19
	s-3.87-1.76-4.4-2.6c-0.53-0.84-1.01-2.07-1.01-2.07s7.66,3.17,8.41,3.48C190.12,238.53,193.55,241.48,193.55,241.48z"/>
<path class="st6" d="M187.26,278.55l0.97,4.4c0,0,3.87,0.09,10.39,0.79c6.52,0.7,8.89,1.5,8.89,1.5S197.65,278.55,187.26,278.55
	 M153.53,290.71c0,0,6.52-2.47,13.21-4.75c6.69-2.29,12.33-2.29,12.33-2.29l-1.14-5.2c0,0-15.41,3.61-22.54,8.19L153.53,290.71z
	 M234.36,214.32c0,0-5.55,8.72-6.78,22.63c0,0,12.06,2.38,18.14,8.54c0,0-11.8-4.49-22.1-5.37
	C223.62,240.12,222.83,222.42,234.36,214.32z M154.63,242.63c-0.18,0.79,2.29,7.31,0.09,16.64c-2.2,9.33-3.08,12.15-3.08,12.15
	s7.04-13.12,7.31-21.75C159.21,241.04,155.51,241.13,154.63,242.63z M185.67,270.63l0.79,3.17c0,0,3.96-0.26,10.92,1.23
	c6.96,1.5,10.57,3.17,10.57,3.17S201.34,271.07,185.67,270.63z"/>
<path class="st7" d="M181.62,268.34l16.08,79.27c0,0-2.03,1.67-3.26-0.09c-1.23-1.76-14.71-77.42-14.71-78.04
	C179.73,268.87,180.52,268.69,181.62,268.34"/>
<path class="st8" d="M139.27,43.36c0,0-2.38,63.27-1.94,68.64c0,0,3.61,0.62,4.67,1.58c0,0,2.82-29.06,4.14-32.93
	c0,0,7.04,12.06,14.62,29.41c0,0,2.55-2.64,4.05-3.61L139.27,43.36z"/>
<path class="st9" d="M149.46,126.62c0,0,1.06,2.38,1.45,2.49c0.4,0.11,7.88-1.19,7.99-1.45c0.11-0.26,0.09-2.8,0.09-2.8
	s-2.05,0.68-4.89,1.21C151.26,126.6,149.46,126.62,149.46,126.62 M148.12,124.55c0,0,3.3-0.35,6.74-0.92
	c3.43-0.57,5.02-1.41,5.02-1.41l-0.44-2.47c0,0-3.79,0.18-6.87,0.79c-3.08,0.62-4.98,1.32-5.24,1.72
	C147.06,122.66,148.12,124.55,148.12,124.55z M147.76,92.23l-1.81,21.04c0,0,1.01,0.35,2.11,2.38c1.1,2.03,1.36,3.17,1.36,3.17
	l6.82-1.41c0,0,0.13-4.58,1.36-6.21L147.76,92.23z M152.08,130.82c0,0,0.81,2.71,1.25,2.77c0.44,0.07,4.47-0.53,4.73-1.08
	c0.26-0.55-0.07-2.71-0.07-2.71S155.01,130.34,152.08,130.82z"/>
<polygon class="st10" points="154.92,137.21 167.42,203.99 169.98,203.51 157.3,136.74 "/>
<path class="st5" d="M184.31,139.65c0,0-0.51,1.01,0.77,3.65c1.28,2.64,5.24,3.41,5.24,3.41s-1.96,1.74-4.03,1.32
	c0,0,2.64,1.28,4.07-0.04l-0.13,1.08c0,0-3.61,0.92-5.22,3.54c0,0-1.08-1.85-1.39-2.91c0,0-1.21,1.25-1.65,2.09
	c0,0-0.11-9.62-0.07-10.06C181.95,141.3,182.92,139.28,184.31,139.65 M190.21,158.14c0,0,2.64-1.81,5.79-1.72
	c3.15-0.09,5.79,1.72,5.79,1.72c-0.81-3-5.79-3.13-5.79-3.13S191.01,155.14,190.21,158.14z M196,151.1c0,0-1.5-1.19-2.29-1.61
	c-0.79-0.42-1.94-0.55-1.94-0.55s0.22-0.59,0.77-1.14c0.55-0.55,2.29-0.95,2.29-0.95s-0.66-0.37-1.28-0.26c0,0,1.65-1.36,1.41-3.13
	c-0.24-1.76-1.83-2.44-1.83-2.44s0.53,1.76,0.42,2.07c-0.11,0.31-0.88,0.81-2.99-0.7c-2.11-1.52-4.95-4.05-5.44-4.27
	c-0.48-0.22-0.95-0.04-0.95-0.04s5.81-7.2,11.82-8.21c4.36,0.74,12.64,7.49,14.46,12.06c0.35,0.88-0.18,9.75-0.18,9.75l-1.52-2.2
	c-0.13,1.08-1.58,3.02-1.58,3.02s-1.01-1.32-2.47-2.33c-1.45-1.01-2.6-1.12-2.6-1.12s0.09-0.59-0.4-1.25
	c-0.48-0.66-1.25-1.17-1.25-1.17c1.17,0.4,3.17,0.2,3.17,0.2c-1.17-0.22-3.06-1.5-3.06-1.5s1.33-0.26,3.21-1.06
	c0.77,1.6,0.98,3.61,0.98,3.61s0.68-1.06,0.68-2.05c0-0.67-0.04-1.72-0.07-2.33c0.29-0.16,0.55-0.32,0.8-0.49
	c0.28,0.67,0.7,1.9,0.7,1.9s0.22-0.86-0.14-2.3c1.27-0.98,1.84-1.88,1.84-1.88s-0.86,0.04-2.05,0.46c-0.07,0.02-0.15,0.05-0.24,0.09
	c-0.39-0.93-0.8-1.52-0.8-1.52l-0.33,0.62l0.5,1.16c-0.38,0.16-0.84,0.36-1.33,0.57c-0.28-0.39-0.62-0.9-0.62-0.99
	c0-0.15,0.84-1.52,0.9-1.76c0.07-0.24-1.61-2.93-1.61-2.93s0.57,1.98,0.53,2.58c-0.04,0.59-1.39,2.36-1.47,2.62
	c-0.05,0.16,0.37,0.74,0.71,1.16c-1.64,0.72-3.2,1.39-3.35,1.37c-0.31-0.04-0.9-0.7-0.97-1.06c-0.11-0.31,0.42-2.07,0.42-2.07
	s-1.58,0.68-1.83,2.44c-0.24,1.76,1.41,3.13,1.41,3.13c-0.62-0.11-1.28,0.26-1.28,0.26s1.74,0.4,2.29,0.95s0.77,1.14,0.77,1.14
	s-1.14,0.13-1.94,0.55C197.49,149.91,196,151.1,196,151.1z"/>
<path class="st11" d="M191.02,144.6l-5.02-3.87c0,0,0.22,1.89,1.5,3.26C188.78,145.35,191.02,144.6,191.02,144.6"/>
<path class="st11" d="M196,152.99c0,0-1.65-1.89-4.91-2.69c0,0-2.33-0.13-6.21,6.52c-3.87,6.65-3.79,14.84-3.79,14.84l1.36-2.86
	c0,0-0.62,7.48,3.52,13.47c0,0-2.38-7.4-0.88-17.04c1.5-9.64,6.74-10.96,10.9-11.4c4.16,0.44,9.4,1.76,10.9,11.4
	c1.5,9.64-0.88,17.04-0.88,17.04c4.14-5.99,3.52-13.47,3.52-13.47l1.36,2.86c0,0,0.09-8.19-3.79-14.84
	c-3.87-6.65-6.21-6.52-6.21-6.52C197.65,151.1,196,152.99,196,152.99 M189.44,160.7c0,0-3.04,1.76-3.43,9.82
	c-0.4,8.06,4.31,18.23,4.31,18.23s0.04-3.26,0.4-4.58c0,0,0.88,4.58,4.27,8.41c0,0,4.62-4.67,6.52-11.18
	c1.89-6.52,0.84-12.28,0.84-12.28s3.52,5.37,1.76,13.74c0,0,4.14-11.31,0.44-20.21c0,0,0.62,3.74,0.26,5.5c0,0-1.28-7.59-7.4-8.7
	c-6.12-1.1-8.37,4.38-9.55,8.3C187.85,167.74,187.45,163.43,189.44,160.7z M182.94,152.82l-1.21,2.07c0,0-2.55-4.67-2.33-8.01
	c0,0-4.97,10.39-3.26,16.38c0,0,0.57-3.26,1.76-4.8c0,0-0.57,7.35,1.72,11.23c0,0-0.92-8.1,4.36-15.45L182.94,152.82z"/>
<path class="st12" d="M260.33,241.95c-0.19-0.32-2.76-4.94-0.21-11.74c1.14-3.04,3.05-5.6,4.85-7.53c0.17-2.86,0.3-4.84,0.3-4.84
	s-9.41,8.63-14.79,14.53C250.48,232.37,257.58,237.21,260.33,241.95 M257.15,249c-0.53-2.24-1.87-5.76-5.22-10.33
	c-0.88-1.2-1.7-2.26-2.44-3.18c-4.74-1.88-10.73-3.15-17.33-1.98c0,0,6.87,0.79,15.59,6.34C252.19,242.68,255.23,246.21,257.15,249z
	 M217.55,263.86c-1.75,0.26-3.83,0.54-5.89,0.73c5.97,1.59,14.14,2.86,19.67,1.41C231.33,266.01,225.55,265.67,217.55,263.86z
	 M236.54,246.89c-1.2,0.74-3.33,1.78-7.24,2.87c-7.31,2.02-12.59,0.88-12.59,0.88s7.4,3.08,5.2,5.37
	c-2.2,2.29-13.41,0.16-18.32-1.67c-4.91-1.83-3.52-7.66-3.52-7.66s-1.41,9.42-0.79,10.39c0.31,0.49,3.04,1.57,6.21,2.63
	c-2.01-0.94-3.21-1.62-3.21-1.62s14.22,5.06,23.47,4.36c9.25-0.7,2.29-5.86,2.29-5.86s7.57-0.09,10.35-1.72
	c2.77-1.63,5.81-4.14,9.16-4.36c0,0-0.12-0.05-0.35-0.13C245.94,249.92,241.58,248.35,236.54,246.89z M223.38,283.9l-3.41,8.26
	c0,0,5.2-7.92,10.04-7.22c4.58,0.67-1.87,33.95-23.45,35.46c-1.2,2.64-2.42,4.87-3.62,6.5c0,0,14.62-6.78,33.9-18.23
	c19.28-11.45,19.2-16.11,19.11-17.96l-25.98,15.67c0,0,13.47-12.59,13.12-22.37c-0.35-9.77-8.72-8.19-12.86-6.08
	C226.84,279.67,224.22,282.81,223.38,283.9z M127.66,267.71l-9.3,11.86c0,0,19.37-15.5,22.54-14.26
	c3.17,1.23-12.68,29.06-16.91,31.52c-4.23,2.47-12.33-6.87-12.33-6.87s0.8,9.87,8.58,16.58c8.81,3.99,18.39,4.73,19.16,4.24
	c0.97-0.62,11.01-30.55,10.74-32.58c0,0-9.65,20.16-19.46,24.39c0,0,7.13-8.81,13.3-23.95c6.16-15.15,3.17-27.03,1.59-27.47
	c-1.59-0.44-17.96,16.64-17.96,16.64L127.66,267.71z M144.39,239.54l-8.2,5.29c8.31-2.83,21.35-8.45,21.35-8.45
	S152.87,237.91,144.39,239.54z M146.69,228.85c-5.43,0.45-11.89,0.33-16.89-1.58c0,0,3.02,6.35,8.81,7.66c0,0-9.86,0.53-14.97-4.4
	c0,0,2.47,9.95,6.69,10.17c0,0,22.37-6.34,22.98-8.89C153.81,229.75,149.31,228.95,146.69,228.85z M153.47,220.98
	c-4.59,2.04-10.13,4.08-14.15,4.26c0,0,5.87,1.11,11.11,1.63l10.2-3.96c0,0-1.14-1.14-1.58-3.17
	C159.03,219.73,157.08,220.46,153.47,220.98z M120.51,210.32c-1.41-1.59-2.92-3.59-4-5.71c-1.23,3.01-2.12,5.81-2.3,7.55
	c0,0,3.7,5.9,11.62,3.43C125.84,215.6,122.51,214.09,120.51,210.32z M131.92,193.62c0.53,4.3,1.59,13.69,1.05,15.24
	c-0.7,2.03-8.72-0.7-9.42-6.16c0,0-0.64,4.96-0.14,8.27c3.18,1.16,8.22,2.74,12.64,2.96c7.13,0.35,6.43-5.37,4.75-7.4
	c-1.67-2.03-5.9-7.13-5.9-7.13l4.23,0.26c0,0-5.46-3.26-6.78-5.28C132.2,194.15,132.06,193.89,131.92,193.62z M219.99,159.86
	c0,0,5.72,9.86,3.96,14.53c-1.76,4.67-7.57,6.69-10.92,9.07c-3.35,2.38-4.75,3.52-4.75,3.52s9.51-9.95,11.36-15.32
	C221.49,166.29,219.99,159.86,219.99,159.86z M209.18,116.81c-3.05-2.09-7.24-4.16-12.1-4.45c0,0-9.95,2.47-16.91,20.08
	c0,0,2.99-3.16,5.76-6.03c-0.89,0.73-1.74,1.57-2.51,2.55c0,0,5.72-11.62,13.03-13.47c0,0,5.99,0.53,10.13,5.72
	c4.14,5.2,8.01,14.53,11.8,26.24c3.79,11.71,8.72,14.88,8.72,14.88s-1.14-5.55-4.67-11.98c-3.52-6.43-5.99-22.63-10.39-29.76
	C211.17,119.17,210.2,117.91,209.18,116.81z"/>
<path class="st8" d="M221.6,269.13c0,0-0.49,19.72-5.42,32.05c-1.89,4.73-4.2,8.32-6.32,10.95
	C216.27,294.21,221.6,269.13,221.6,269.13 M194.42,255.84c-0.14,1.33,1.99,2.97,5.1,4.65c-2.74-0.7-5.01-1.03-5.01-1.03
	S194.33,257.98,194.42,255.84z M235.21,246.51c-0.03,0-7.24-0.8-13.75-0.36c-6.52,0.44-11.8,1.67-16.03,0.97
	c-4.23-0.7-6.34-2.47-6.34-2.47s-4.15,6.5-4.67,11.17c0.07-1.59,0.29-3.54,0.85-5.54c1.32-4.71,2.73-6.87,2.73-6.87
	s3.17,0.57,6.03,1.01c2.86,0.44,12.99-1.36,21.97,0C228.88,244.87,232.13,245.65,235.21,246.51z M123.36,264.01L123.36,264.01
	c0,0-12.05,15.96-20.15,18.25c0,0,5.21,12.56,12.77,22.03c-0.73-0.45-1.43-0.92-2.12-1.43c-9.77-7.22-17.52-23.69-17.52-23.69
	s8.36-1.23,21.13-10.39C119.62,267.24,121.58,265.62,123.36,264.01z M146.35,221.51L146.35,221.51c0,0-11.18,2.36-20.6,2.18
	c0,0-4.06,0.67-3.31,11.16c-0.07-0.47-0.14-0.96-0.21-1.48c-1.32-10.04-0.79-10.74,0-11.62c0.79-0.88,12.15-0.53,21.75-0.26
	C144.8,221.52,145.59,221.52,146.35,221.51z M130.19,188.73l-1.36-0.78c0,0-3.7,6.87-2.91,14.18c0,0-2.37-6.02-2.03-8.72
	c0,0-3.52,3.1-4.84,5.61c1.36-2.7,2.81-5.17,4.05-6.76c3.43-4.4,4.75-8.37,4.75-8.37l5.37,5.55l-3.08-0.88
	C130.15,188.56,130.17,188.62,130.19,188.73z M193.81,110.59c-3.53,1.94-8.39,5.34-12.32,10.79c-7.04,9.77-2.36,20.56-11.62,33.37
	c-2.17,3-3.32,5.99-3.82,8.8c-1.59-4.64,1.81-9.28,4.96-15.93c3.17-6.69,3.87-16.38,7.84-24.65
	C182.44,115.46,188.56,111.36,193.81,110.59z"/>
<path class="st13" d="M274.4,173.93c-3.34-3.13-9.8-8.69-14.19-9.32c0,0,4.58,12.15,0,24.83c0,0-0.53-7.4-4.58-11.09
	c0,0-0.7,14.62-5.11,22.01c0,0-2.64-15.67-4.58-20.25c0,0-8.25,19.27-16.03,24.13c0,0,14-26.56,1.54-42.28
	c-0.12-0.05-0.23-0.11-0.34-0.16c0,0,3.08,8.63,1.14,16.82c-1.94,8.19-5.46,12.59-5.46,12.59s1.27-7.04-0.62-12.94
	c0,0-5.99,14.88-18.14,21.13c-12.15,6.25-18.31,5.19-18.31,5.19s5.02-2.82,7.22-5.81c0,0-14,3.87-25.45-5.37l1.85,9.6
	c0,0,4.93-2.2,7.48-0.62c2.55,1.58,1.58,5.02,1.58,5.02s3.08-1.06,5.02,3.17c1.94,4.23-1.67,13.65-1.67,13.65s9.51-1.5,13.91-10.21
	c0,0,2.38,9.77-3.96,16.99c0,0,9.25,4.14,17.87-5.72c0,0,0.44,8.01-3.26,12.42c0,0,11.27-7.31,14.79-18.93c0,0-9.86,3.26-15.59,1.58
	c0,0,7.04-6.6,9.42-15.5c0,0-3.96,2.29-7.04,2.2c0,0,9.69-6.08,11.62-9.6c0,0,0.7,12.15-5.02,18.4c0,0,17.79-2.47,26.94-18.58
	c0,0-1.67,18.58-8.01,24.48c0,0,12.15-4.05,15.67-8.37c0,0-0.18,5.99-2.2,9.69c0,0,4.4-0.62,11.09-16.11
	c6.69-15.5,4.14-27.03,4.14-27.03s9.16,14.44,6.43,27.3c0,0,5.02-16.99-0.18-27.65l4.14,0.79
	C276.54,180.38,275.96,177.64,274.4,173.93 M251.99,264.36c-0.58,1.07-1.47,2.33-2.79,3.56c5.61-2.69,7.31-7.19,7.31-7.19
	C254.98,262.35,253.43,263.52,251.99,264.36z M252.01,254.78c-0.39,0.98-1.1,2.26-2.37,3.88c-3.79,4.84-10.04,4.05-10.04,4.05
	s2.21,3.61,6.21,3.74c0,0,0.78-0.02,2.02-0.35c-0.64,0.24-1.32,0.37-2.02,0.35c0,0,1.76-0.75,4.98-4.45
	c3.21-3.7,3.87-7.04,3.87-7.04S253.59,254.8,252.01,254.78z M115.4,221.3c-1.31,3.6-3.07,9.75-2.45,15.53
	c0.06-0.24,0.13-0.47,0.21-0.71c0,0,0.7,8.89,9.86,11.27c0,0-4.05-5.19-4.75-12.15c-0.7-6.96,0.35-12.86-0.7-13.74
	C117.19,221.18,116.37,221.07,115.4,221.3z M162.42,196.61c-3.13,0.92-9.22,1.48-12.81,0.76c0,0,1.51,5.72,4.41,7.31
	c0.34,0.03,0.69,0.07,1.05,0.09c0,0-1.94,3.35-4.23,4.4c0,0,3.26,3.52,5.72,3.61c0,0,1.23-5.81,2.47-6.87
	c1.23-1.06,4.93-1.76,4.93-1.76L162.42,196.61z M159.55,184.87c-3.99-1.23-10.2-3.7-12.84-7.66c0,0,3.35,15.14,14,16.82
	c0.46,0.07,0.86,0.15,1.22,0.22l-1.84-8.94C160.09,185.31,159.89,185.16,159.55,184.87z M232.36,151.02c0.8,2.19,2.1,5.2,3.92,7.63
	c-7.97-4.15-9.22-8.92-9.22-8.92C228.61,150.43,230.33,150.77,232.36,151.02z M157.33,168.27c-2.47-2.3-6.31-6.19-8.42-9.91
	c0,0-1.96,4.51,0.13,10.07c0.5,0.51,6.63,6.73,10,8.33L157.33,168.27z"/>
<path class="st14" d="M137.67,175.25c-0.69-2.78-2.08-8.98-1.4-11.47c0,0,1.94,6.96,6.87,10.04c0,0-6.08-10.04-1.94-17.26
	c0,0,6.76-3.6,12.58-5.26c-0.73-0.06-4.18-0.19-10.77,2.13c-7.48,2.64-11.36,4.23-11.36,4.23S131.85,167.02,137.67,175.25
	 M151.6,192.19c-2.11-0.71-6.81-2.75-11.89-7.9c-2.33-2.36-4-4.94-5.17-7.31c-2.45-1.05-5.08-2.66-6.75-5.06
	C127.78,171.92,132.35,189.96,151.6,192.19z M147.7,203.16c-1.71-1.85-4.09-4.84-5.44-8.39c0,0,4.53,0.98,10.5-2.24
	c-1.88,0.58-8.25,2.21-14.24-0.01C138.52,192.53,139.54,199.79,147.7,203.16z M109.41,238.68c0.17-4.42,0.82-10.02,2.72-15.42
	c-0.8,0.84-1.52,1.96-2.05,3.44C108.47,231.15,108.5,234.76,109.41,238.68z M239.76,259.7c2.01,0.33,4.27,0.22,6.22-1.09
	c1.54-1.04,2.62-2.38,3.37-3.73c-2.41,0.24-5.18,0.91-7.29,2.58C241.24,258.12,240.47,258.88,239.76,259.7z M102.47,266.82
	c6.91-2.88,13.11-6.1,16.8-9.09c2.77-2.24,4.89-4.13,6.52-5.68c-5.88,3.88-18.48,11.56-26.37,11.62
	C99.42,263.67,100.54,265.38,102.47,266.82z M233.83,151.18c1.4,0.8,2.93,1.62,4.58,2.39c7.92,3.7,13.47,9.07,13.47,9.07
	s-2.03-5.28-5.02-7.22c0,0,8.79,0.45,16.47,6.25c7.4,5.6,9.22,8.45,9.34,8.65c-3.03-5.67-8.17-12.15-16.47-14.86
	C245.67,152.02,238.83,151.68,233.83,151.18z M233.75,162.89c1.66,1.42,3.47,3.26,4.84,5.42c3.35,5.28,4.27,8.01,4.27,8.01
	s-0.04-6.21-2.07-10.08c-0.38-0.72-0.72-1.34-1.03-1.88C237.79,164.05,235.72,163.58,233.75,162.89z"/>
<path class="st15" d="M195.62,153.87c-0.2-0.25-0.65-0.59-1.64-0.88c-1.81-0.53-4.18,0.48-4.18,0.48s1.85-1.65,3.89-2.18
	c1.53,0.81,2.3,1.7,2.3,1.7s1.65-1.89,4.91-2.69c0,0,2.33-0.13,6.21,6.52c3.87,6.65,3.79,14.84,3.79,14.84l-1.36-2.86
	c0,0,0.62,7.48-3.52,13.47c0,0,2.38-7.4,0.88-17.04c-1.5-9.64-6.74-10.96-10.9-11.4C195.87,153.84,195.75,153.86,195.62,153.87
	 M190.46,185.87c-0.3-3.42-0.44-7.37,0.23-9.45c0,0,1.23,7.48,4.23,10.57c0,0,7.57-8.19,5.02-21.66c0,0,0.18,2.55-1.58,5.11
	c0,0,1.37-8.47-2.93-11.11c0.61-0.04,1.27,0,1.99,0.13c6.12,1.1,7.4,8.7,7.4,8.7c0.35-1.76-0.26-5.5-0.26-5.5
	c3.7,8.89-0.44,20.21-0.44,20.21c1.76-8.37-1.76-13.74-1.76-13.74s1.06,5.77-0.84,12.28c-1.89,6.52-6.52,11.18-6.52,11.18
	c-3.39-3.83-4.27-8.41-4.27-8.41C190.6,184.59,190.52,185.21,190.46,185.87z M213.03,146.74l-0.57,2.95c0,0,3.57,9.16,3.65,13.43
	C216.12,163.12,217.79,154.53,213.03,146.74z M208.59,154.27c0,0,1.89,2.64,3.21,7.66c1.32,5.02,0.92,7.31,0.92,7.31
	s1.85-2.33,0.84-7.92C212.55,155.72,208.59,154.27,208.59,154.27z M177.9,158.49c0.44-1.16,0.95-2.17,1.52-2.64
	c0,0-0.48,2.33-0.53,4.67c0,0,1.19-2.9,2.75-5.81c0.06,0.11,0.09,0.18,0.09,0.18l1.21-2.07l1.03,1.41
	c-4.05,5.63-4.45,11.7-4.42,14.24c-0.07,0.52-0.06,0.96,0.06,1.22C177.42,165.96,177.86,159.06,177.9,158.49z"/>
<path class="st16" d="M188.47,146.13c-0.7-0.02-1.44-0.12-2.12-0.36c-2.14-0.75-2.49-1.67-2.49-1.67s-0.1,3.37,2.55,3.99
	c-0.08-0.03-0.12-0.05-0.12-0.05c2.07,0.42,4.03-1.32,4.03-1.32S189.49,146.56,188.47,146.13 M197.54,146.95
	c0.46,0.54-0.63,3.19-1.62,4.09l0.08,0.06c0,0,1.5-1.19,2.29-1.61c0.79-0.42,1.94-0.55,1.94-0.55s-0.22-0.59-0.77-1.14
	C199.06,147.41,198.08,147.1,197.54,146.95z M197.9,146.03c-0.73-0.12-1.67-0.13-2.31,0.38c0,0,1.13-0.04,1.74,0.36
	c0.24-0.1,0.68-0.26,1.11-0.18C198.44,146.59,198.19,146.38,197.9,146.03z M196.25,129.9c0.03,1.24,0.07,3.1,0.07,3.1
	s2.42,1.14,3.21,1.89c0,0-4.01-1.19-7.44,0.7c0,0,4.71,1.1,5.2,1.72c0.48,0.62-0.14,4.37-0.18,5.74v0c0.4-1.47,1.75-2.05,1.75-2.05
	s-0.53,1.76-0.42,2.07c0.07,0.35,0.66,1.01,0.97,1.06c0.12,0.02,1.1-0.39,2.31-0.91l-0.71-2.01c0,0,1.52-1.63,1.61-2.29
	c0.09-0.66-0.42-3.85-0.42-3.85s0.43,0.8,0.89,1.66c-0.05-0.2-0.09-0.32-0.09-0.32s1.67,2.69,1.61,2.93
	c-0.07,0.24-0.9,1.61-0.9,1.76c0,0.09,0.34,0.59,0.62,0.99c0.49-0.22,0.95-0.41,1.33-0.57l-0.5-1.16l0.33-0.62
	c0,0,0.41,0.59,0.8,1.52c0.09-0.04,0.17-0.07,0.24-0.09c1.19-0.42,2.05-0.46,2.05-0.46s-0.57,0.91-1.84,1.88
	c0.36,1.44,0.14,2.3,0.14,2.3s-0.05-0.14-0.12-0.34c-0.01,1.36-0.39,2.61-0.39,2.61s0.22-1.65-0.42-2.66
	c-0.18-0.28-0.37-0.47-0.55-0.61c0.02,0.61,0.05,1.39,0.05,1.93c0,0.99-0.68,2.05-0.68,2.05s-0.01-0.1-0.03-0.28
	c0,0-0.74-1.88-1.29-2.23c-0.35-0.22-1.24-0.29-1.85-0.3c-0.63,0.19-1,0.26-1,0.26s1.89,1.28,3.06,1.5c0,0-2,0.2-3.17-0.2
	c0,0,0.77,0.51,1.25,1.17c0.48,0.66,0.4,1.25,0.4,1.25s1.15,0.11,2.6,1.12c1.45,1.01,2.47,2.33,2.47,2.33s1.45-1.94,1.58-3.02
	l1.52,2.2c0,0,0.53-8.87,0.18-9.75C208.67,137.44,200.67,130.85,196.25,129.9z"/>
<path class="st6" d="M155.09,130.31l0.55,3c1.14-0.21,2.28-0.51,2.42-0.79c0.26-0.55-0.07-2.71-0.07-2.71
	S156.76,130.03,155.09,130.31 M154.3,126.03l0.47,2.53c2.02-0.35,4.07-0.77,4.13-0.91c0.11-0.26,0.09-2.8,0.09-2.8
	S157.04,125.51,154.3,126.03z M153.27,120.41l0.62,3.37c0.32-0.05,0.64-0.1,0.96-0.16c3.43-0.57,5.02-1.41,5.02-1.41l-0.44-2.47
	C159.43,119.75,156.19,119.9,153.27,120.41z M147.76,92.23l5.09,25.89l3.41-0.7c0,0,0.13-4.58,1.36-6.21L147.76,92.23z"/>
<path class="st17" d="M146.13,80.65l-6.66-36.78l25.33,62.58c-1.5,0.97-4.05,3.61-4.05,3.61C153.18,92.72,146.13,80.65,146.13,80.65
	"/>
<path class="st16" d="M181.55,214.39c0.87,0.73,1.86,1.7,2.67,2.85c-0.39,1.42-0.39,3.87-0.57,4.43c-0.22,0.7-1.85,1.14-1.85,1.14
	s0.13-0.92-0.44-2.24c-0.57-1.32-1.23-1.59-1.23-1.59s1.8-1.5,1.58-3.7C181.68,214.96,181.62,214.66,181.55,214.39 M171.78,211.19
	c-0.25-1.97-0.39-3.63-0.34-4.72c3.04-0.84,6.67-1.7,7.63-0.78c1.01,0.97,0.97,2.6,0.26,4.01
	C178.63,211.1,176.21,210.71,171.78,211.19z M173.05,219.08c-0.34-1.87-0.66-3.73-0.92-5.46c1.03-0.15,1.98-0.25,2.72-0.27
	c3.04-0.09,3.83-0.09,3.83-0.09s0.88,2.03,0.48,3.17c-0.4,1.14-1.23,1.19-4.75,2.29C174.4,218.72,173.86,218.87,173.05,219.08z
	 M174.41,226.1c-0.29-1.43-0.6-2.96-0.9-4.53c2.68-0.66,5.07-1.39,5.29-1.39C180.99,224.85,179.48,225.01,174.41,226.1z
	 M175.82,232.73c-0.22-1.01-0.55-2.54-0.94-4.36c2.33-0.74,4.27-1.37,4.27-1.37c0.88,2.11,0.66,2.95-0.62,4.36
	C178.11,231.83,177.08,232.3,175.82,232.73z M178.29,255.4L178.29,255.4c-2.71-2.85-1.21-10.42-1.21-10.42s1.94,5.58,4.58,6.34
	c0.96,0.28,2.03-0.08,3.01-0.64c-0.81,2.76-1.04,5.39-1.04,5.39l-2.6,0.84c0,0-2.77-1.41-2.69-3.52
	C178.34,253.39,178.13,254.21,178.29,255.4z M176.48,261.24c1.54-0.55,3.04-1.08,4.08-1.48c0.18,0.18,0.38,0.36,0.59,0.55
	c0,0,7.44-2.33,7.57-3.17c0.13-0.84,0.4-14.26,0.4-14.26s0.26-1.66-2.93-3.48l0.17,0.02c0,0-3.87-1.76-4.4-2.6
	c-0.53-0.84-1.01-2.07-1.01-2.07s7.66,3.17,8.41,3.48c0.75,0.31,4.18,3.26,4.18,3.26s-2.82,9.69-2.82,15.06c0,0,0.7,2.11-4.14,4.75
	c-4.84,2.64-11.8,4.58-12.5,4.14c-0.7-0.44-0.53-2.29-0.53-2.29s3.35-1.59,3.35-1.85C176.91,261.24,176.75,261.23,176.48,261.24z"/>
<path class="st11" d="M145.61,82.98l-5.52-17.88l-0.83-21.73c0,0-1.28,34.2-1.79,54.44l0.86-5.77l4.78,10.63l0,0
	c0.16-1.51,0.34-3.09,0.52-4.69l-5.04-11.04l0.44-7.31l5.33,12.13C144.8,88.26,145.24,85.1,145.61,82.98"/>
<polygon class="st7" points="158.62,156.97 161.06,156.54 169.98,203.51 167.42,203.99 "/>
<path class="st2" d="M279.13,384.2c-0.1,2.08-1.08,3.9-2.89,5.35c-0.67,0.53-1.4,0.97-2.19,1.32l-19.06,8.56l-0.21,0.09l-0.21,0.08
	l-0.22,0.08l-0.22,0.07l-0.22,0.07l-0.23,0.06l-0.23,0.06l-0.23,0.05l-0.24,0.05l-0.24,0.04l-0.24,0.04l-0.24,0.03l-0.25,0.03
	l-0.25,0.02l-0.25,0.01l-0.26,0.01l-0.26,0l-0.26,0l-0.26-0.01l-0.27-0.01l-0.27-0.02l-0.27-0.02l-0.27-0.03l-2.2-0.19
	c-48.04-4.09-90.23-3.87-138.16,0.48l-0.28,0.03l-0.28,0.03l-0.28,0.02l-0.27,0.01l-0.27,0.01l-0.27,0l-0.26,0l-0.26-0.01
	l-0.26-0.02l-0.26-0.02l-0.25-0.03l-0.25-0.03l-0.25-0.04l-0.24-0.04l-0.24-0.05l-0.24-0.06l-0.23-0.06l-0.23-0.07l-0.23-0.07
	l-0.23-0.08l-0.22-0.09l-0.22-0.09l-0.21-0.1l-18.62-8.38c-0.08-0.04-0.17-0.07-0.25-0.11c-0.8-0.37-1.54-0.84-2.21-1.41
	c-1.48-1.26-2.36-2.77-2.62-4.46l-0.01,0l-0.29,0.04L79,385.39l-0.29,0.04l-0.29,0.04l-0.43,0.05l-0.43,0.05l-0.43,0.05l-0.43,0.05
	l-0.43,0.05l-0.43,0.05l-0.43,0.05l-0.43,0.05l-0.43,0.05l-0.43,0.05L73.7,386l-0.43,0.05l-0.43,0.05l-0.43,0.05l-0.43,0.05
	l-0.43,0.04l-0.25,0.03l-0.25,0.03l-0.25,0.03l-0.25,0.02l-0.25,0.02l-0.25,0.02l-0.25,0.02l-0.25,0.02l-0.25,0.02l-0.25,0.02
	l-0.25,0.02l-0.25,0.02l-0.25,0.02l-0.25,0.01l-0.25,0.01l-0.25,0.01l-0.25,0.01l-0.25,0.01l-0.25,0.01l-0.25,0.01l-0.25,0.01
	l-0.25,0.01l-0.25,0.01l-0.25,0.01l-0.25,0l-0.25,0l-0.25,0l-0.25,0l-0.25,0l-0.25,0l-0.25,0l-0.25,0l-0.26,0l-0.26,0l-0.26-0.01
	l-0.25-0.01l-0.25-0.01l-0.25-0.01l-0.25-0.01l-0.25-0.01l-0.25-0.01l-0.25-0.02l-0.25-0.02l-0.25-0.02l-0.25-0.02l-0.25-0.02
	l-0.25-0.02l-0.25-0.02l-0.25-0.02l-0.25-0.03l-0.25-0.03l-0.25-0.03l-0.25-0.03l-0.25-0.03l-0.25-0.03l-0.25-0.03l-0.25-0.03
	l-0.25-0.04l-0.25-0.04l-0.24-0.04l-0.24-0.04l-0.24-0.04l-0.24-0.04l-0.24-0.04l-0.28-0.05l-0.27-0.06l-0.27-0.06l-0.27-0.06
	l-0.27-0.06l-0.27-0.07l-0.27-0.07l-0.27-0.07l-0.26-0.07l-0.26-0.08l-0.26-0.08l-0.26-0.08l-0.26-0.09l-0.25-0.09l-0.25-0.09
	l-0.25-0.09L19.5,372.46c-1.67-0.64-3.24-1.43-4.7-2.39c-3.17-2.12-5.52-4.97-7-8.36c-1.65-3.7-1.97-7.89-1.55-12.06
	c0.42-4.12,1.2-8.23,2.22-12.31c1.02-4.04,2.22-8.02,3.52-11.97c1.3-3.86,2.74-7.68,4.26-11.44c1.44-3.46,2.95-6.86,4.5-10.24
	c1.44-3,3.55-5.71,6.05-8.13c3.02-2.89,6.79-5.12,10.8-6.9c4.64-2.05,9.81-3.36,14.91-4.27c6.47-1.12,13.26-1.48,19.83-1.48
	c3.8,0,7.56,0.09,11.36,0.2c4.71,0.14,9.39,0.68,13.93,1.65c4.99,1.06,9.6,2.8,13.65,5.25c1.41,0.84,2.67,1.78,3.8,2.78
	c0.35-0.91,0.7-1.81,1.06-2.74c1.51-3.97,6.12-6.6,11.57-6.6c52.53-0.02,105.06,0.07,157.59,0.11c2.57,0,5.13,0.32,7.6,0.93
	c2.57,0.63,4.96,1.58,7.17,2.81c2.15,1.22,4.04,2.72,5.63,4.44c0.22,0.23,0.42,0.47,0.63,0.72l4.32-4.79
	c2.21-2.54,5.79-4.09,9.82-4.09c8.12,0.01,16.25,0.02,24.37,0.02c3.94,0.01,7.32,1.49,9.67,4.26c2.36,2.8,3.02,6.09,1.86,9.38
	c-4.26,12.22-8.48,24.28-12.73,36.14c-4.19,11.71-8.44,23.24-12.66,34.68c-0.87,2.34-2.7,4.07-5.09,5.01l-29.42,12.12l-0.32,0.12
	l-0.33,0.11l-0.34,0.1l-0.35,0.08l-0.35,0.07l-0.36,0.06l-0.37,0.05l-0.37,0.03l-0.38,0.02l-0.39,0.01l-0.39-0.01l-0.4-0.02
	l-0.4-0.03l-0.4-0.05l-0.76-0.1l-0.76-0.1l-0.76-0.1l-0.76-0.1l-0.76-0.1l-0.76-0.09l-0.76-0.09l-0.76-0.09l-0.76-0.09l-0.76-0.09
	l-0.76-0.09l-0.76-0.09l-0.76-0.09l-0.76-0.09l-0.76-0.09l-0.76-0.09L279.13,384.2z"/>
<path class="st18" d="M298.07,300.38c-0.27-1.11-0.85-2.08-1.65-2.95c-0.81-0.87-1.76-1.62-2.92-2.28
	c-1.13-0.65-2.39-1.17-3.76-1.52c-1.37-0.35-2.74-0.52-4.11-0.53c-8.55-0.1-17.06-0.2-25.57-0.27c-4.29,10.82-8.54,21.56-12.8,32.21
	c-4.25,10.63-8.51,21.19-12.77,31.71c8.41,0.41,16.81,0.89,25.25,1.43c2.95-7.39,5.91-14.84,8.86-22.3
	c2.96-7.48,5.94-15.01,8.93-22.6c1.97,7.8,4.01,15.63,5.98,23.49c1.97,7.89,4.01,15.81,6.01,23.78c10.09,1.04,20.22,2.06,30.35,3.25
	c4.22-11.27,8.5-22.67,12.7-34.24c4.24-11.69,8.51-23.54,12.77-35.56c-8.16-0.15-16.32-0.28-24.44-0.42
	c-2.53,6.74-5.06,13.43-7.56,20.04c-2.49,6.59-4.99,13.16-7.49,19.65c-1.3-5.52-2.64-11.03-3.9-16.51
	C300.67,311.29,299.38,305.81,298.07,300.38 M193.97,355.59c8.58,0.07,17.2,0.32,25.81,0.56c4.26-10.49,8.56-20.97,12.8-31.5
	c4.27-10.59,8.58-21.23,12.87-31.94c-8.51-0.05-16.99-0.1-25.46-0.14c-4.36,10.55-8.72,21.1-13.05,31.59
	C202.63,334.61,198.29,345.1,193.97,355.59z M133.13,343.43c2.5-6.64,5.03-13.24,7.53-19.82c2.49-6.57,5.03-13.12,7.56-19.67
	c6.51-0.05,13.01-0.09,19.52-0.11c1.05,0,2.01,0.18,2.85,0.54c0.85,0.37,1.56,0.84,2.18,1.44c0.61,0.58,1.05,1.25,1.41,1.99
	c0.35,0.73,0.53,1.42,0.53,2.1c0,0.68-0.25,1.78-0.74,3.27c-0.49,1.49-1.14,3.19-1.9,5.12c-0.75,1.92-1.58,3.95-2.5,6.07
	c-0.91,2.12-1.83,4.14-2.74,6.04c-0.91,1.9-1.77,3.56-2.53,5.01c-0.75,1.44-1.29,2.44-1.69,2.94c-0.69,0.86-1.37,1.57-2,2.14
	c-0.63,0.57-1.44,1.03-2.39,1.38c-0.95,0.35-2.15,0.62-3.55,0.79c-1.41,0.17-3.13,0.3-5.17,0.35
	C144.03,343.13,138.58,343.25,133.13,343.43z M160.98,355.66c2.46-0.06,4.78-0.39,7.03-1.06c2.25-0.67,4.36-1.55,6.33-2.67
	c1.97-1.12,3.8-2.41,5.49-3.88c1.65-1.43,3.2-2.9,4.57-4.41c0.81-0.9,1.74-2.28,2.74-4.16c1-1.88,2-4.01,3.06-6.38
	c1.05-2.37,2.11-4.86,3.09-7.52c0.98-2.65,1.86-5.2,2.67-7.62c0.81-2.42,1.44-4.63,1.9-6.6c0.46-1.97,0.67-3.53,0.67-4.65
	c0-1.69-0.44-3.32-1.27-4.91c-0.83-1.58-1.99-2.99-3.52-4.17c-2.59-1.99-5.59-3.35-8.97-4.11c-3.38-0.76-6.89-1.15-10.55-1.15
	c-15.54,0.02-31.05,0.07-46.56,0.16c-4.19,10.76-8.38,21.59-12.52,32.49c-4.16,10.97-8.33,22.07-12.48,33.21
	C122.08,357.06,141.53,356.16,160.98,355.66z M70.49,342.41c-0.62,1.35-1.24,2.57-2.53,3.48c-1.27,0.9-2.78,1.61-4.5,2.14
	c-1.72,0.52-3.48,0.89-5.35,1.15c-1.86,0.26-3.52,0.41-4.99,0.59c-1.52,0.19-2.92,0.28-4.22,0.09c-1.27-0.19-2.36-0.55-3.2-1.12
	c-0.81-0.56-1.41-1.33-1.76-2.26c-0.35-0.94-0.27-2.05,0.07-3.34c1.42-5.44,3.03-10.83,5.03-16.16c1.98-5.27,4.1-10.35,6.37-15.27
	c0.54-1.18,1.37-2.16,2.53-2.91c1.13-0.74,2.39-1.34,3.8-1.78c1.41-0.44,2.88-0.75,4.4-0.93c1.55-0.17,2.95-0.27,4.22-0.31
	c1.16-0.04,2.53-0.01,4.11,0.07c1.62,0.08,3.06,0.29,4.4,0.64c1.34,0.35,2.38,0.94,3.13,1.72c0.76,0.79,0.95,1.86,0.6,3.25
	c-1.33,5.24-2.99,10.42-5.03,15.52C75.52,332.09,72.91,337.13,70.49,342.41z M109.28,306.79c0.13-0.77,0.19-1.59,0-2.35
	c-0.8-3.17-2.85-5.49-5.59-7.12c-2.74-1.63-5.87-2.81-9.43-3.54c-3.52-0.72-7.25-1.14-11.18-1.21c-3.9-0.07-7.53-0.1-10.9-0.06
	c-6.75,0.08-12.56,0.56-17.34,1.47c-4.78,0.91-8.76,2.08-11.92,3.49c-3.17,1.41-5.63,2.99-7.42,4.69c-1.8,1.71-3.06,3.38-3.83,5
	c-1.44,3.01-2.89,6.22-4.33,9.68c-1.44,3.47-2.8,7.03-4.04,10.68c-1.25,3.67-2.36,7.36-3.31,11.06c-0.95,3.7-1.63,7.29-2,10.73
	c-0.33,2.97-0.03,5.44,0.84,7.39c0.88,1.95,2.18,3.51,3.94,4.67c1.75,1.14,3.83,1.96,6.22,2.46c2.39,0.5,4.96,0.81,7.7,0.88
	c2.74,0.07,5.52-0.03,8.34-0.3c2.81-0.27,5.52-0.52,8.09-0.79c3.59-0.38,7.14-0.9,10.69-1.52c3.52-0.61,7.1-1.37,10.66-2.15
	c4.43-0.97,8.51-2.68,12.24-5.06c3.72-2.37,6.58-5.2,8.44-8.58c3.59-6.52,6.5-13.07,8.79-19.64
	C106.21,320.14,108.11,313.54,109.28,306.79z"/>
<path class="st0" d="M267.4,383.91c-2.43-0.22-4.85-0.42-7.28-0.64c-0.35-1.77-0.7-3.55-1.06-5.34c-0.7-0.05-1.41-0.1-2.07-0.16
	c-0.49,1.72-0.98,3.42-1.44,5.12c-2.43-0.21-4.85-0.41-7.28-0.63c1.51-5.42,3.06-10.86,4.61-16.32c5.24,0.38,10.48,0.74,15.72,1.14
	c1.06,0.08,1.79,0.41,2.29,0.95c0.49,0.52,0.62,1.18,0.39,1.96c-0.61,2.06-1.17,4.13-1.72,6.17c-0.18,0.68-0.57,1.2-1.16,1.59
	c-0.57,0.38-1.27,0.63-2.08,0.7C266.66,380.26,267.01,382.08,267.4,383.91 M259.59,368.51c-0.67,2.41-1.34,4.81-2,7.2
	c1.48,0.11,2.99,0.25,4.5,0.36c0.67-2.39,1.34-4.8,2.04-7.22C262.62,368.74,261.11,368.63,259.59,368.51z M233.92,381.31
	c-1.02-0.06-1.79-0.32-2.29-0.83c-0.49-0.51-0.61-1.13-0.39-1.89c1.08-3.7,2.12-7.43,3.17-11.15c0.22-0.78,0.74-1.37,1.48-1.8
	c0.77-0.45,1.65-0.63,2.67-0.58c4.01,0.2,8.02,0.42,12.06,0.7c-0.21,0.69-0.39,1.37-0.56,2.06c-2.74-0.21-5.49-0.38-8.19-0.53
	c-0.49,1.7-0.98,3.41-1.48,5.1c2.11,0.12,4.22,0.23,6.37,0.38c-0.21,0.67-0.39,1.36-0.56,2.02c-2.15-0.14-4.26-0.23-6.37-0.37
	c-0.49,1.72-0.98,3.41-1.48,5.1c2.74,0.17,5.49,0.35,8.23,0.51c-0.21,0.68-0.39,1.35-0.56,2.02
	C241.97,381.82,237.93,381.55,233.92,381.31z M227.77,380.94c-2.43-0.15-4.85-0.27-7.28-0.36c0.49-1.69,0.98-3.38,1.48-5.07
	c-1.55-0.05-3.06-0.1-4.57-0.15c-0.49,1.69-0.98,3.37-1.48,5.05c-2.43-0.09-4.85-0.17-7.28-0.26c1.55-5.37,3.09-10.75,4.64-16.14
	c2.43,0.06,4.85,0.14,7.28,0.21c-0.88,3.05-1.76,6.08-2.6,9.12c1.51,0.05,3.02,0.1,4.57,0.15c0.84-3.04,1.72-6.06,2.6-9.1
	c2.43,0.12,4.85,0.25,7.28,0.37C230.86,370.17,229.31,375.56,227.77,380.94z M210.43,365.95c-1.83-0.05-3.66-0.1-5.45-0.16
	c-1.37,4.7-2.74,9.39-4.08,14.11c-2.43-0.04-4.85-0.05-7.28-0.09c1.34-4.72,2.67-9.43,4.04-14.16c-1.83-0.01-3.66-0.04-5.45-0.05
	c0.18-0.67,0.39-1.35,0.6-2.02c6.05,0.06,12.1,0.19,18.18,0.36C210.78,364.6,210.6,365.29,210.43,365.95z M178.07,365.5
	c-0.67,2.37-1.34,4.75-2.01,7.12c1.51-0.02,3.02-0.05,4.57-0.05c0.67-2.36,1.34-4.7,2-7.07C181.1,365.49,179.59,365.49,178.07,365.5
	z M185.88,379.72c-2.43-0.02-4.85-0.05-7.28-0.02c0.46-1.72,0.95-3.41,1.44-5.11c-1.51,0.04-3.02,0.05-4.54,0.07
	c-0.49,1.69-0.98,3.39-1.48,5.09c-2.43,0.02-4.85,0.06-7.28,0.1c1.3-4.58,2.61-9.16,3.9-13.74c0.22-0.78,0.7-1.39,1.48-1.86
	c0.77-0.47,1.65-0.72,2.67-0.73c4.08-0.03,8.16-0.02,12.27,0.01c1.05,0.01,1.83,0.25,2.32,0.72c0.49,0.47,0.61,1.08,0.39,1.85
	C188.46,370.63,187.18,375.2,185.88,379.72z M168.54,365.61c-2.74,0.04-5.49,0.06-8.19,0.09c-0.49,1.7-0.98,3.41-1.48,5.1
	c2.11-0.01,4.22-0.05,6.37-0.06c-0.21,0.68-0.39,1.36-0.56,2.02c-2.15,0.02-4.26,0.05-6.37,0.09c-0.7,2.38-1.37,4.78-2.04,7.17
	c-2.43,0.09-4.85,0.19-7.28,0.27c1.3-4.62,2.58-9.25,3.9-13.87c0.23-0.8,0.73-1.41,1.48-1.9c0.77-0.5,1.65-0.77,2.67-0.79
	c4.01-0.07,8.02-0.1,12.06-0.15C168.89,364.26,168.72,364.95,168.54,365.61z M146.67,380.38c-5.17,0.21-10.34,0.4-15.47,0.72
	c1.51-5.57,3.06-11.13,4.61-16.69c2.43-0.07,4.85-0.16,7.32-0.23c-1.37,4.83-2.74,9.64-4.08,14.47c2.74-0.1,5.49-0.21,8.23-0.31
	C147.05,379.03,146.84,379.71,146.67,380.38z M128.87,381.24c-5.17,0.32-10.34,0.67-15.51,1c1.55-5.65,3.09-11.28,4.64-16.9
	c2.43-0.12,4.85-0.26,7.28-0.38c-1.37,4.9-2.71,9.81-4.04,14.71c2.71-0.17,5.45-0.35,8.19-0.52
	C129.22,379.87,129.05,380.55,128.87,381.24z M102.85,368.48c-0.7,2.51-1.37,5.02-2.04,7.52c1.51-0.12,3.02-0.25,4.57-0.37
	c0.67-2.49,1.34-5,2.04-7.49C105.87,368.24,104.36,368.37,102.85,368.48z M110.66,382.49c-2.46,0.22-4.89,0.43-7.32,0.64
	c0.49-1.79,0.98-3.58,1.48-5.37c-1.55,0.12-3.06,0.25-4.57,0.38c-0.49,1.79-0.98,3.59-1.44,5.38c-2.46,0.23-4.89,0.44-7.32,0.68
	c1.3-4.89,2.58-9.77,3.9-14.63c0.23-0.83,0.75-1.49,1.51-2.04c0.75-0.53,1.62-0.84,2.64-0.91c4.08-0.31,8.19-0.62,12.31-0.91
	c1.02-0.07,1.79,0.11,2.29,0.56c0.49,0.44,0.64,1.06,0.42,1.86C113.26,372.91,111.96,377.7,110.66,382.49z"/>
<path class="st19" d="M54.84,307.15l-4.81,0.34l5.2-0.68C55.1,306.92,54.96,307.04,54.84,307.15 M105.55,303.56l-22.22,1.57
	c-0.93-0.71-2-1.23-3.13-1.58c6.68-0.87,14.3-1.86,22.68-2.95C104.01,301.4,104.93,302.37,105.55,303.56z M187.6,297.75
	c-21.21,1.5-41.74,2.95-60.17,4.25l1.87-4.82l11.72-1.51c11.07-0.05,22.15-0.08,33.22-0.09c3.31,0,6.61,0.34,9.84,1.07
	C185.29,296.92,186.47,297.29,187.6,297.75z M99.23,330.13c-7.27,0.34-13.96,0.66-19.93,0.95c0.26-0.59,0.51-1.18,0.75-1.77
	l20.29-2.1C99.99,328.19,99.62,329.16,99.23,330.13z M135.4,328.43l-18.44,0.87l1.19-3.13l0.32-0.83l18.86-1.96L135.4,328.43z
	 M189.76,325.92c-5.95,0.27-11.88,0.54-17.74,0.81c0.16-0.37,0.32-0.74,0.48-1.1c0.88-2.04,1.72-4.09,2.53-6.16l17.69-1.83
	c-0.77,2.29-1.57,4.58-2.41,6.85C190.12,324.96,189.94,325.44,189.76,325.92z M229.35,324.12c-6.39,0.29-12.83,0.58-19.29,0.87
	l3.95-9.56l19.67-2.04c-1.35,3.35-2.71,6.71-4.06,10.06L229.35,324.12z M270.52,322.32c-6.2,0.27-12.57,0.54-19.08,0.83
	c1.61-4.03,3.21-8.06,4.81-12.1l19.5-2.02l-1.21,3.08C273.21,315.51,271.87,318.91,270.52,322.32z M299.66,321.09
	c-5.33,0.22-10.89,0.45-16.67,0.69c-0.79-3.1-1.59-6.19-2.37-9.29l-0.98-3.87l16.69-1.73c0.84,3.53,1.66,7.05,2.48,10.59
	C299.1,318.68,299.38,319.89,299.66,321.09z M332.69,319.82c-5.5,0.19-11.73,0.42-18.56,0.69c0.73-1.92,1.46-3.84,2.18-5.76
	c1.3-3.44,2.6-6.89,3.9-10.34l18.7-1.94C336.86,308.27,334.78,314.05,332.69,319.82z M284.79,328.82l16.48-0.93
	c0.49,2.04,0.97,4.08,1.45,6.12l2.38,10.08l3.72-9.66c0.91-2.37,1.82-4.74,2.73-7.11l18.82-1.06l-0.81,2.22
	c-3.86,10.65-7.83,21.26-11.81,31.87c-8.55-0.98-17.12-1.86-25.68-2.73c-1.82-7.2-3.66-14.4-5.47-21.61
	C286.01,333.6,285.4,331.21,284.79,328.82z M248.35,330.88l19.21-1.09l-1.94,4.91c-2.66,6.72-5.32,13.43-8,20.14
	c-6.16-0.39-12.33-0.74-18.49-1.06C242.21,346.15,245.29,338.52,248.35,330.88z M206.65,333.24l19.45-1.1
	c-2.81,6.92-5.64,13.83-8.45,20.75c-6.31-0.17-12.62-0.34-18.93-0.44C201.36,346.04,204.01,339.64,206.65,333.24z M113.48,338.5
	l18.49-1.04c-0.61,1.62-1.22,3.23-1.83,4.85l-1.69,4.48l4.79-0.16c5.44-0.18,10.88-0.31,16.32-0.43c1.83-0.04,3.67-0.15,5.49-0.37
	c1.44-0.18,2.91-0.46,4.27-0.96c1.25-0.46,2.42-1.11,3.42-2c0.86-0.77,1.64-1.62,2.36-2.51c0.77-0.97,1.45-2.35,2.03-3.46
	c0.26-0.49,0.51-0.98,0.76-1.47l18.23-1.03c-0.57,1.21-1.16,2.42-1.79,3.6c-0.62,1.16-1.41,2.54-2.29,3.52
	c-1.33,1.47-2.8,2.84-4.3,4.14c-1.54,1.33-3.2,2.5-4.97,3.51c-1.79,1.01-3.7,1.8-5.67,2.38c-2.02,0.6-4.09,0.87-6.2,0.93
	c-17.85,0.45-35.69,1.25-53.52,2.29C109.4,349.34,111.44,343.92,113.48,338.5z M22.1,343.66l18.74-1.06
	c-0.4,1.65-0.51,3.37,0.1,4.99c0.58,1.54,1.59,2.83,2.94,3.76c1.34,0.92,2.94,1.41,4.54,1.65c1.69,0.25,3.4,0.13,5.08-0.08
	c1.68-0.21,3.36-0.37,5.04-0.6c1.98-0.27,3.93-0.67,5.84-1.26c1.92-0.59,3.77-1.42,5.42-2.58c1.79-1.26,2.71-2.83,3.59-4.76
	c0.47-1.02,0.95-2.04,1.43-3.05l20.24-1.14c-0.87,1.76-1.77,3.5-2.72,5.21c-1.72,3.12-4.38,5.53-7.36,7.43
	c-3.45,2.2-7.2,3.76-11.21,4.63c-3.49,0.77-7,1.51-10.52,2.12c-3.48,0.61-6.97,1.12-10.48,1.49c-2.68,0.28-5.37,0.53-8.05,0.79
	c-2.64,0.25-5.3,0.35-7.96,0.28c-2.39-0.06-4.78-0.32-7.13-0.81c-1.8-0.38-3.58-0.99-5.13-2c-1.27-0.83-2.15-1.93-2.77-3.3
	c-0.77-1.72-0.78-3.89-0.58-5.73C21.38,347.64,21.7,345.64,22.1,343.66z"/>
</svg>
